<svg version="1" xmlns="http://www.w3.org/2000/svg" width="533.333" height="533.333" viewBox="0 0 400.000000 400.000000"><path d="M0 200v200h400V0H0v200zm191-4.5V246h-22v-36.9c0-23.6-.4-37.2-1-37.6-.5-.3-1-1.7-1-3.1 0-2.3-.2-2.4-8-2.4h-8v40h-22v-16.9c0-10.3-.4-17.2-1-17.6-.5-.3-1-1.7-1-3.1 0-2.3-.2-2.4-8-2.4h-8v80H88.9l.3-49.1c.3-47.2.4-49.1 2.2-50.5 1.7-1.2 10.2-1.4 50.8-1.4H191v50.5zm38-14.1c0 35.9 0 36.4 2 35.9 1.1-.3 2 0 2 .6 0 2.5 7.8.2 12.3-3.7 1.5-1.3 1.7-3.8 1.7-23.4 0-26.9-.5-25.8 13-25.8h9v44.5l3.8 3.1c4.6 3.8 9.5 6.4 12.2 6.4 2 0 2-.4 2-35 0-42-1-39 13-39h9v101h-22l-14-7c-7.7-3.9-14.6-7-15.4-7-.7 0-8 3.1-16.1 7l-14.7 7H207v-48.5c0-57.5-1.2-52.5 13-52.5h9v36.4z"/></svg>